<svg width="112" height="192" viewBox="0 0 112 192" fill="none" xmlns="http://www.w3.org/2000/svg">
<g clip-path="url(#clip0_4_2918)">
<path d="M47.9168 191.995C68.6802 191.995 85.5123 190.107 85.5123 187.777C85.5123 185.447 68.6802 183.559 47.9168 183.559C27.1534 183.559 10.3213 185.447 10.3213 187.777C10.3213 190.107 27.1534 191.995 47.9168 191.995Z" fill="#B4CFD6"/>
<path d="M66.9427 67.2361C66.6151 65.3399 65.6275 63.6206 64.1545 62.3823C62.6815 61.144 60.818 60.4664 58.8935 60.4692H41.2463C39.2477 60.4729 37.32 61.2107 35.8297 62.5424C34.3395 63.8741 33.3905 65.7069 33.1631 67.6924C32.4106 74.2213 31.294 83.8667 30.4784 90.9199C30.3462 92.0609 30.457 93.2169 30.8034 94.312C31.1498 95.407 31.7241 96.4164 32.4885 97.2738C33.2529 98.1311 34.19 98.8171 35.2384 99.2865C36.2868 99.7559 37.4227 99.9982 38.5714 99.9974H62.9521C64.1396 99.9978 65.3129 99.7385 66.3897 99.2379C67.4666 98.7372 68.4209 98.0072 69.1859 97.0989C69.9508 96.1907 70.5079 95.1262 70.8182 93.98C71.1285 92.8338 71.1843 91.6337 70.9819 90.4636C69.7245 83.2842 68.0496 73.6243 66.9427 67.2361Z" fill="#FCC458"/>
<path d="M69.7244 68.4305C69.3774 66.5597 68.3863 64.8694 66.9231 63.6529C65.4599 62.4363 63.6169 61.7704 61.714 61.7705H43.9066C41.9195 61.7709 40.0011 62.4974 38.5124 63.8134C37.0237 65.1294 36.0673 66.9441 35.8234 68.916C35.0952 74.8042 34.0563 83.1874 33.2698 89.5611C33.1273 90.7064 33.23 91.869 33.5712 92.9717C33.9123 94.0743 34.4841 95.0918 35.2485 95.9567C36.0129 96.8216 36.9525 97.514 38.0049 97.9881C39.0574 98.4622 40.1987 98.707 41.353 98.7065H65.5444C66.7401 98.7066 67.9212 98.4435 69.0038 97.9359C70.0863 97.4283 71.0439 96.6886 71.8085 95.7694C72.573 94.8502 73.1258 93.774 73.4276 92.6171C73.7294 91.4603 73.7729 90.2512 73.5548 89.0756L69.7244 68.4305Z" fill="#F8A848"/>
<path d="M32.7894 83.2844L30.7649 83.1582C30.7649 83.1582 30.362 89.6192 30.1629 92.7453C30.1376 93.1826 30.2862 93.6122 30.5763 93.9404C30.8664 94.2687 31.2745 94.469 31.7116 94.4977H32.0854L32.7894 83.2844Z" fill="#F8A848"/>
<path d="M15.9045 120.108L2.57812 137.652C6.59789 138.394 11.0691 136.953 16.2104 132.312L18.0503 124.836C17.5446 123.174 16.8232 121.584 15.9045 120.108Z" fill="#CB4143"/>
<path d="M2.57772 137.652L15.8944 120.133C15.262 119.111 14.476 118.193 13.5641 117.41L-0.0292969 136.87C0.806764 137.23 1.68155 137.492 2.57772 137.652Z" fill="#F9E4E4"/>
<path d="M52.9463 115.56C52.9463 115.56 47.1206 142.419 42.5813 145.579C37.7266 148.977 14.5983 132.205 14.5983 132.205C13.9138 130.22 15.9819 124.487 17.4578 123.909C17.4578 123.909 32.8718 129.919 33.0951 128.72C33.5174 126.458 34.4641 109.919 34.4641 109.919L52.9463 115.56Z" fill="#FDA092"/>
<path d="M34.27 113.041L34.4642 109.919L52.9464 115.56C52.9464 115.56 52.524 117.502 51.8201 120.375C44.2272 119.497 37.479 115.327 34.27 113.041Z" fill="#EF7D78"/>
<path d="M53.6162 184.121L75.5987 185.151C73.9286 181.418 70.205 178.554 63.4617 176.961L56.2572 179.69C55.187 181.044 54.3006 182.534 53.6211 184.121H53.6162Z" fill="#CB4143"/>
<path d="M75.5987 185.151L53.6163 184.122C53.1329 185.223 52.8218 186.392 52.6938 187.588L76.4192 187.723C76.2445 186.837 75.9692 185.974 75.5987 185.151Z" fill="#F9E4E4"/>
<path d="M55.7671 114.711C57.4807 136.447 57.6137 158.279 56.1652 180.034C58.4955 180.316 62.5735 180.063 65.5349 178.068C69.4815 155.526 72.0883 132.77 73.3414 109.919L55.7671 114.711Z" fill="#FDA092"/>
<path d="M73.0259 114.526L73.3414 109.919L55.7671 114.711L56.17 120.497C62.4813 120.094 68.6323 117.201 73.0259 114.526Z" fill="#EF7D78"/>
<path d="M41.4648 90.8911C36.8187 95.59 34.6681 102.08 33.7554 111.279C39.1976 114.915 45.5913 117.182 53.3202 117.706L54.6261 113.264L55.0728 117.58C61.4325 116.939 68.9769 115.056 74.8366 111.687C73.8572 104.504 71.6985 97.5313 68.4477 91.0513L41.4648 90.896V90.8911Z" fill="#7396DD"/>
<path d="M38.5908 94.5318C39.4106 93.2152 40.3746 91.9941 41.4649 90.8911L68.4478 91.0465L69.2925 92.8571C67.7748 93.5562 66.1862 94.09 64.5542 94.4493C58.2042 95.7599 47.8586 96.7211 38.5908 94.5318Z" fill="#6277C5"/>
<path d="M59.2963 116.992C57.8398 117.259 56.4368 117.453 55.0726 117.589L54.626 113.274V113.099L56.0436 108.541L66.2386 106.929L59.2963 116.992Z" fill="#6277C5"/>
<path d="M42.5815 45.2416C42.5815 45.2416 51.3784 53.5715 53.9077 53.2462C56.4371 52.921 65.8942 45.261 65.8942 45.261C65.8942 45.261 74.9144 84.8911 73.1036 88.556C71.4189 91.954 66.7923 93.0996 65.8942 93.2889C64.9961 93.4782 45.0477 95.0316 41.2901 92.852C37.9889 90.9103 35.8722 89.7211 35.9062 85.9978C35.9401 82.2746 42.5815 45.2222 42.5815 45.2222V45.2416Z" fill="#B0AB1E"/>
<path d="M37.6248 73.9546C37.984 78.3234 39.9114 83.6242 43.6204 86.5756C49.4462 91.2163 63.8212 92.1192 73.3317 86.0271C73.3754 87.2649 73.3075 88.1436 73.1036 88.561C71.419 91.959 66.7924 93.1046 65.8942 93.2939C64.9961 93.4832 45.0477 95.0366 41.2901 92.857C37.9889 90.9153 35.8722 89.726 35.9062 86.0028C35.9062 84.7747 36.6538 79.9156 37.6248 73.9594V73.9546Z" fill="#9FA317"/>
<path d="M49.2616 46.8096C49.2616 46.8096 49.9801 51.7415 47.8926 52.8871C47.8926 52.8871 49.5286 59.4743 54.2378 59.3432C58.1216 59.2364 60.0101 52.8531 60.0101 52.8531C60.0101 52.8531 57.8012 52.7657 58.2333 47.1008L49.2616 46.8096Z" fill="#FDA092"/>
<path d="M49.145 50.926C51.8783 52.6298 57.1506 53.7657 59.9469 53.0473C59.9858 52.9211 60.01 52.8531 60.01 52.8531C60.01 52.8531 57.8011 52.7657 58.2332 47.1008L49.2615 46.8096C49.4477 48.1789 49.4084 49.5694 49.145 50.926Z" fill="#EF7D78"/>
<path d="M64.5542 46.8095C76.9922 38.2466 87.3426 26.3003 96.6298 12.6162L101.412 17.8685C91.9947 34.705 80.8091 50.4896 68.0448 64.9547L64.5542 46.8289V46.8095Z" fill="#FDA092"/>
<path d="M96.6975 13.5727C96.6975 13.5727 94.4206 4.67971 95.5324 3.93701C96.6441 3.19431 98.62 8.96601 98.62 8.96601C98.62 8.96601 103.999 0.927373 105.417 1.74774C106.834 2.56811 103.533 8.24272 103.533 8.24272C103.533 8.24272 109.228 4.24282 110.296 5.02436C111.364 5.80589 105.815 10.9271 105.815 10.9271C105.815 10.9271 111.417 9.36405 111.684 10.2718C111.951 11.1795 106.689 14.0824 106.689 14.0824C106.689 14.0824 112.223 14.2571 112.005 15.1989C111.786 16.1406 101.057 18.0483 101.057 18.0483L97.1976 14.0921" fill="#FDA092"/>
<path d="M44.3293 48.931C34.8382 39.9215 25.2111 26.9898 15.8025 11.728L10.5205 16.4803C18.1474 34.208 28.0851 50.1251 39.188 65.9937L44.3293 48.931Z" fill="#FDA092"/>
<path d="M15.6471 12.6697C15.6471 12.6697 18.7929 4.04853 17.7637 3.18933C16.7345 2.33013 14.1906 7.88824 14.1906 7.88824C14.1906 7.88824 9.63197 -0.645527 8.15126 0.0292137C6.67055 0.703954 9.37466 6.68924 9.37466 6.68924C9.37466 6.68924 4.10721 2.14566 2.96633 2.80584C1.82546 3.46602 6.85016 9.11636 6.85016 9.11636C6.85016 9.11636 1.42251 7.00476 1.07297 7.88338C0.723421 8.762 5.66559 12.1745 5.66559 12.1745C5.66559 12.1745 0.140855 11.7959 0.262225 12.7522C0.383594 13.7085 10.8748 16.6744 10.8748 16.6744L15.1033 13.1211" fill="#FDA092"/>
<path d="M48.2661 49.1347L45.9407 48.29C42.1636 62.5567 38.173 76.0223 33.2065 89.4395C33.3425 90.8375 33.7309 91.9491 34.7601 92.3035C39.7168 80.0222 44.5231 64.6877 48.2661 49.1347Z" fill="#FFD983"/>
<path d="M59.2383 49.1347L61.5686 48.29C65.3456 62.5567 68.7391 74.503 73.7056 87.9152C73.424 89.2113 72.7346 90.0414 72.1278 90.2404C67.1467 77.9446 62.9862 64.6877 59.2383 49.1347Z" fill="#FFD983"/>
<path d="M49.2226 79.0757C48.6158 68.5226 48.9459 59.8238 49.2566 49.9502C49.2606 49.7819 49.1981 49.6188 49.0827 49.4962C48.9673 49.3735 48.8083 49.3012 48.6401 49.2949C48.5564 49.2917 48.4729 49.3051 48.3944 49.3345C48.316 49.3638 48.2442 49.4085 48.1832 49.4659C48.1222 49.5232 48.0732 49.5922 48.0391 49.6687C48.005 49.7452 47.9865 49.8277 47.9847 49.9114C47.6739 59.8189 47.3438 68.5517 47.9507 79.1437C47.9603 79.3123 48.0366 79.4702 48.1627 79.5827C48.2888 79.6951 48.4544 79.7528 48.6231 79.7432C48.7917 79.7335 48.9497 79.6573 49.0621 79.5312C49.1745 79.4051 49.2323 79.2395 49.2226 79.0709V79.0757Z" fill="#363E77"/>
<path d="M61.981 78.3039C61.6994 69.1925 60.879 59.8141 59.7381 50.2755C59.7129 50.1126 59.6254 49.9659 59.4942 49.8662C59.3629 49.7666 59.198 49.7218 59.0343 49.7413C58.8706 49.7608 58.7209 49.8431 58.6167 49.9708C58.5126 50.0986 58.4621 50.2618 58.4759 50.426C59.6119 59.9258 60.4178 69.2702 60.7139 78.3428C60.7094 78.4306 60.7232 78.5183 60.7543 78.6005C60.7854 78.6827 60.8333 78.7575 60.8948 78.8203C60.9563 78.8831 61.0301 78.9325 61.1117 78.9653C61.1932 78.9981 61.2807 79.0136 61.3686 79.0109C61.4564 79.0082 61.5428 78.9874 61.6221 78.9496C61.7015 78.9119 61.7722 78.8581 61.8298 78.7917C61.8873 78.7252 61.9305 78.6476 61.9565 78.5637C61.9825 78.4797 61.9909 78.3913 61.981 78.3039Z" fill="#363E77"/>
<path d="M47.0284 80.0561C47.0232 79.4432 47.2608 78.8531 47.6892 78.4148C48.1176 77.9764 48.7021 77.7253 49.315 77.7164L60.1897 77.5999C60.4938 77.5954 60.7957 77.6511 61.0782 77.7637C61.3606 77.8764 61.618 78.0437 61.8355 78.2562C62.053 78.4687 62.2263 78.7222 62.3454 79.0019C62.4646 79.2816 62.5272 79.5822 62.5297 79.8862C62.5297 81.7842 62.5783 84.4589 62.6026 86.3569C62.6078 86.9707 62.3695 87.5614 61.9401 88C61.5106 88.4385 60.9249 88.689 60.3111 88.6967L49.4364 88.818C49.1325 88.8212 48.831 88.7645 48.5491 88.651C48.2672 88.5375 48.0104 88.3696 47.7935 88.1568C47.5766 87.9439 47.4038 87.6904 47.285 87.4107C47.1662 87.131 47.1038 86.8307 47.1012 86.5268C47.0769 84.6288 47.0478 81.9541 47.0284 80.0561Z" fill="#C84A77"/>
<path d="M48.116 80.0321C48.1113 79.7285 48.1673 79.4269 48.2807 79.1452C48.394 78.8634 48.5625 78.6072 48.7763 78.3914C48.9881 78.1737 49.2408 77.9999 49.5198 77.88C49.7989 77.76 50.0989 77.6963 50.4026 77.6924L61.2773 77.5759C61.5812 77.572 61.8829 77.6281 62.165 77.741C62.4472 77.8539 62.7043 78.0213 62.9217 78.2337C63.139 78.4461 63.3123 78.6992 63.4317 78.9787C63.5511 79.2581 63.6142 79.5584 63.6173 79.8622C63.6173 81.7602 63.6659 84.4349 63.6902 86.3329C63.6954 86.9467 63.4571 87.5374 63.0277 87.976C62.5982 88.4145 62.0125 88.665 61.3987 88.6727L50.5288 88.794C50.2245 88.7979 49.9225 88.7416 49.64 88.6284C49.3575 88.5152 49.1002 88.3474 48.8828 88.1345C48.6654 87.9216 48.4922 87.6679 48.3731 87.3879C48.254 87.1079 48.1914 86.8071 48.1888 86.5028C48.1646 84.6048 48.1354 81.9301 48.116 80.0321Z" fill="#DA669A"/>
<path d="M58.9471 85.2262C59.4814 84.5384 59.7671 83.6898 59.7574 82.8189C59.7477 81.948 59.4432 81.106 58.8937 80.4302V79.5225H56.7624C55.4079 79.7069 54.3641 81.1292 54.3836 82.8379C54.403 84.5466 55.4759 85.9495 56.8352 86.1048L58.9616 86.0805V85.1728L58.9471 85.2262Z" fill="#C84A77"/>
<path d="M58.6942 79.5124C58.0392 79.5192 57.401 79.72 56.8602 80.0896C56.3194 80.4592 55.9004 80.9808 55.6562 81.5886C55.412 82.1963 55.3535 82.8629 55.4883 83.5038C55.623 84.1448 55.9449 84.7314 56.4131 85.1894C56.8814 85.6474 57.475 85.9562 58.1188 86.0768C58.7627 86.1974 59.4278 86.1243 60.0301 85.8668C60.6324 85.6093 61.1448 85.179 61.5024 84.6303C61.86 84.0815 62.0468 83.4391 62.0392 82.7841C62.0289 81.907 61.6709 81.0697 61.0437 80.4562C60.4166 79.8428 59.5715 79.5033 58.6942 79.5124Z" fill="#F599C8"/>
<path d="M58.6993 80.2018C58.1823 80.2085 57.6788 80.3683 57.2525 80.6609C56.8261 80.9536 56.4961 81.3659 56.304 81.846C56.1119 82.326 56.0663 82.8522 56.1731 83.3581C56.2798 83.8641 56.5341 84.327 56.9038 84.6885C57.2735 85.0501 57.742 85.294 58.2502 85.3894C58.7585 85.4849 59.2836 85.4277 59.7593 85.225C60.235 85.0223 60.64 84.6832 60.9231 84.2505C61.2062 83.8178 61.3548 83.311 61.35 82.7939C61.3411 82.0991 61.0571 81.4362 60.5603 80.9503C60.0634 80.4645 59.3943 80.1953 58.6993 80.2018Z" fill="#363E77"/>
<path d="M59.7384 81.0806C59.5812 81.0944 59.4349 81.1666 59.3283 81.2829C59.2217 81.3993 59.1626 81.5514 59.1626 81.7092C59.1626 81.867 59.2217 82.019 59.3283 82.1354C59.4349 82.2518 59.5812 82.324 59.7384 82.3378C59.8256 82.3455 59.9135 82.3349 59.9964 82.3068C60.0793 82.2787 60.1554 82.2337 60.22 82.1745C60.2846 82.1154 60.3361 82.0435 60.3714 81.9634C60.4066 81.8833 60.4248 81.7967 60.4248 81.7092C60.4248 81.6216 60.4066 81.5351 60.3714 81.455C60.3361 81.3748 60.2846 81.3029 60.22 81.2438C60.1554 81.1847 60.0793 81.1397 59.9964 81.1115C59.9135 81.0834 59.8256 81.0729 59.7384 81.0806Z" fill="white"/>
<path d="M49.7471 79.0856C49.7465 79.059 49.7512 79.0326 49.7609 79.0079C49.7706 78.9832 49.7851 78.9607 49.8037 78.9417C49.8222 78.9227 49.8444 78.9076 49.8689 78.8973C49.8933 78.887 49.9196 78.8817 49.9462 78.8817L52.8979 78.8477C52.9244 78.8471 52.9508 78.8517 52.9755 78.8614C53.0003 78.8712 53.0228 78.8857 53.0418 78.9043C53.0608 78.9228 53.0759 78.945 53.0862 78.9694C53.0965 78.9939 53.1018 79.0202 53.1018 79.0467C53.1018 79.3234 53.1018 79.8234 53.1018 80.105C53.1018 80.1582 53.081 80.2093 53.0438 80.2474C53.0066 80.2855 52.956 80.3076 52.9027 80.3088L49.951 80.338C49.8982 80.338 49.8476 80.317 49.8103 80.2797C49.773 80.2424 49.752 80.1917 49.752 80.1389C49.7568 79.8865 49.752 79.3623 49.7471 79.0856Z" fill="#C84A77"/>
<path d="M50.0239 79.2939C50.0251 79.2539 50.0411 79.2158 50.069 79.187C50.0968 79.1583 50.1345 79.141 50.1744 79.1386L52.6649 79.1143C52.6851 79.1137 52.7052 79.1171 52.724 79.1244C52.7428 79.1316 52.76 79.1426 52.7745 79.1567C52.789 79.1707 52.8005 79.1875 52.8084 79.2061C52.8162 79.2247 52.8203 79.2446 52.8203 79.2648C52.8203 79.4201 52.8203 79.658 52.8203 79.8182C52.8203 79.8581 52.8044 79.8964 52.7762 79.9246C52.748 79.9528 52.7097 79.9687 52.6698 79.9687L50.1793 79.9978C50.1394 79.9978 50.1011 79.9819 50.0729 79.9537C50.0446 79.9255 50.0288 79.8872 50.0288 79.8473C50.0288 79.692 50.0288 79.4493 50.0239 79.2939Z" fill="#363E77"/>
<path d="M50.9169 79.4011C50.9147 79.3834 50.9167 79.3655 50.9226 79.3486C50.9284 79.3318 50.9381 79.3166 50.9508 79.3041C50.9637 79.2915 50.9788 79.2816 50.9955 79.2749C51.0122 79.2683 51.03 79.265 51.0479 79.2652H52.4364C52.454 79.2646 52.4716 79.2675 52.4881 79.2738C52.5045 79.2801 52.5196 79.2896 52.5323 79.3019C52.545 79.3141 52.555 79.3288 52.5619 79.345C52.5688 79.3612 52.5724 79.3787 52.5724 79.3963C52.5724 79.431 52.5585 79.4644 52.534 79.489C52.5094 79.5135 52.476 79.5273 52.4413 79.5273H51.0479C51.0133 79.5271 50.9801 79.5131 50.9557 79.4885C50.9421 79.4765 50.9315 79.4614 50.9248 79.4446C50.918 79.4277 50.9153 79.4095 50.9169 79.3914V79.4011Z" fill="white"/>
<path d="M54.6214 36.761C61.8339 36.761 67.6808 31.9775 67.6808 26.0768C67.6808 20.1761 61.8339 15.3926 54.6214 15.3926C47.4089 15.3926 41.562 20.1761 41.562 26.0768C41.562 31.9775 47.4089 36.761 54.6214 36.761Z" fill="#E6B489"/>
<path d="M45.7031 18.281C48.2784 16.3596 51.4132 15.3364 54.6262 15.3684C60.4131 15.3684 65.3068 18.4557 67.0399 22.7323C59.6704 15.4267 50.3492 16.9703 45.7031 18.281Z" fill="#F3CDA1"/>
<path d="M54.9803 44.8048C66.8205 44.8048 76.419 39.4606 76.419 32.8682C76.419 26.2758 66.8205 20.9316 54.9803 20.9316C43.14 20.9316 33.5415 26.2758 33.5415 32.8682C33.5415 39.4606 43.14 44.8048 54.9803 44.8048Z" fill="#C68F6A"/>
<path d="M54.6165 40.2273C62.998 40.2273 69.7926 37.1912 69.7926 33.4459C69.7926 29.7007 62.998 26.6646 54.6165 26.6646C46.235 26.6646 39.4404 29.7007 39.4404 33.4459C39.4404 37.1912 46.235 40.2273 54.6165 40.2273Z" fill="#AE654F"/>
<path d="M54.2379 21.7471C60.6705 21.7471 65.8894 27.9945 65.8894 35.6885C65.8894 43.3824 61.122 49.7221 54.2379 49.625C47.3538 49.5279 42.5864 43.3776 42.5864 35.6885C42.5864 27.9993 47.8053 21.7471 54.2379 21.7471Z" fill="#FDA092"/>
<path d="M48.2665 26.1063C45.9216 28.3344 44.7662 37.8682 46.1595 43.1933C46.7761 45.5379 44.305 45.2563 44.2176 47.2708C44.0089 51.1542 45.14 53.5814 45.14 53.5814C45.14 53.5814 37.4889 50.7708 37.3724 46.6252C37.2898 44.0476 39.091 42.902 39.6832 40.7759C40.2755 38.6497 39.091 36.7517 39.6832 34.611C40.2755 32.4703 41.4989 30.4752 43.3001 28.3005C44.1302 27.2956 48.3005 26.0869 48.3005 26.0869L48.2665 26.1063Z" fill="#8D4A54"/>
<path d="M62.2139 26.6694C62.4906 26.6985 64.3743 36.1011 64.049 40.9457C63.8985 43.1544 60.8934 45.0378 61.9663 46.9795C63.1849 49.1882 63.0829 51.5134 61.8935 54.1541C61.8935 54.1541 66.7094 54.0764 69.5932 49.0037C70.4622 47.4795 68.2581 46.1883 68.1853 44.7174C68.1173 43.3437 69.8408 43.0864 69.5252 39.4894C69.1999 35.8002 66.6852 28.1111 66.6852 28.1111L62.2139 26.6548V26.6694Z" fill="#8D4A54"/>
<path d="M38.9888 32.8584C44.7902 25.3926 64.0395 23.6353 69.7973 32.8924C70.7682 30.4216 69.5837 27.7469 66.5591 24.8877L58.8934 22.2033C55.3106 20.4461 49.5091 21.3781 44.329 23.5965C40.9307 27.043 38.9888 30.1692 38.9888 32.8584Z" fill="#C68F6A"/>
<path d="M49.8297 35.8338C50.1434 35.8338 50.3977 35.4383 50.3977 34.9504C50.3977 34.4624 50.1434 34.0669 49.8297 34.0669C49.516 34.0669 49.2617 34.4624 49.2617 34.9504C49.2617 35.4383 49.516 35.8338 49.8297 35.8338Z" fill="#30385B"/>
<path d="M59.4225 35.8338C59.7362 35.8338 59.9905 35.4383 59.9905 34.9504C59.9905 34.4624 59.7362 34.0669 59.4225 34.0669C59.1088 34.0669 58.8545 34.4624 58.8545 34.9504C58.8545 35.4383 59.1088 35.8338 59.4225 35.8338Z" fill="#30385B"/>
<path d="M57.7915 29.5575L58.0731 28.4362C58.4897 28.2308 58.9489 28.1267 59.4134 28.1326C59.8779 28.1384 60.3344 28.2539 60.7457 28.4697C61.157 28.6855 61.5115 28.9955 61.7802 29.3744C62.0489 29.7532 62.2242 30.1902 62.2919 30.6497C61.7272 30.0528 61.0018 29.6321 60.2032 29.4383C59.4046 29.2445 58.5671 29.2859 57.7915 29.5575Z" fill="#8D4A54"/>
<path d="M52.0966 29.5575L51.815 28.4362C51.3984 28.2308 50.9391 28.1267 50.4747 28.1326C50.0102 28.1384 49.5537 28.2539 49.1424 28.4697C48.731 28.6855 48.3766 28.9955 48.1079 29.3744C47.8392 29.7532 47.6638 30.1902 47.5962 30.6497C48.1609 30.0528 48.8863 29.6321 49.6849 29.4383C50.4834 29.2445 51.321 29.2859 52.0966 29.5575Z" fill="#8D4A54"/>
<path d="M56.306 32.5718C55.5098 35.6105 56.4176 36.8921 56.5342 37.6736C56.5362 37.956 56.467 38.2344 56.3329 38.483C56.1989 38.7316 56.0042 38.9424 55.7671 39.0959" stroke="#D04949" stroke-width="1.27" stroke-linecap="round" stroke-linejoin="round"/>
<path d="M51.2959 40.2319C53.4845 40.6425 55.7123 40.8054 57.9373 40.7174C57.9373 40.7174 57.8062 45.5473 54.1408 45.1202C50.9173 44.727 51.2959 40.2319 51.2959 40.2319Z" fill="white"/>
</g>
<defs>
<clipPath id="clip0_4_2918">
<rect width="112" height="192" fill="white"/>
</clipPath>
</defs>
</svg>
