<svg width="81" height="187" viewBox="0 0 81 187" fill="none" xmlns="http://www.w3.org/2000/svg">
<g clip-path="url(#clip0_4_2969)">
<path d="M42.0108 186.995C63.544 186.995 81.0001 185.179 81.0001 182.938C81.0001 180.697 63.544 178.88 42.0108 178.88C20.4776 178.88 3.02148 180.697 3.02148 182.938C3.02148 185.179 20.4776 186.995 42.0108 186.995Z" fill="#B4CFD6"/>
<path d="M66.8989 169.121C66.8989 169.121 59.2035 175.943 65.5954 183.647L81.0002 168.196L74.1614 163.106L66.8989 169.121Z" fill="#2B2738"/>
<path d="M63.9517 181.075C64.3798 182.004 64.9327 182.869 65.595 183.648L80.9999 168.197L78.998 166.707L63.9517 181.075Z" fill="#F0EDF4"/>
<path d="M22.5698 123.431L19.73 174.411L29.5064 176.372L37.2484 126.106L22.5512 123.412L22.5698 123.431Z" fill="#FDA092"/>
<path d="M22.2065 129.94C26.727 131.528 31.4123 132.598 36.1729 133.129L37.2529 126.125L22.5557 123.431L22.2065 129.94Z" fill="#EF7D78"/>
<path d="M44.5991 124.734C44.5991 124.734 47.2481 138.985 50.1856 145.527C53.6121 153.124 66.2004 170.018 66.2004 170.018C69.4592 169.439 72.6668 165.974 74.7058 163.747C74.7058 163.747 64.8223 148.44 61.7172 141.8C59.0822 136.197 58.1465 123.534 58.1465 123.534L44.5991 124.734Z" fill="#FDA092"/>
<path d="M46.4613 133.437C50.7268 133.207 54.9543 132.508 59.0682 131.355C58.4072 127.152 58.1371 123.547 58.1371 123.547L44.5991 124.733C44.5991 124.733 45.3393 128.716 46.4613 133.437Z" fill="#EF7D78"/>
<path d="M20.5955 173.576C20.5955 173.576 10.549 171.442 8.18408 181.182L29.7388 184.385V175.845L20.5955 173.576Z" fill="#2B2738"/>
<path d="M9.2688 178.324C8.78049 179.223 8.41561 180.185 8.18408 181.182L29.7388 184.385V181.882L9.2688 178.324Z" fill="#F0EDF4"/>
<path d="M26.1823 40.1893C23.6218 40.1893 21.5269 37.948 21.5269 35.2117C21.5269 32.4755 23.6171 30.2295 26.1823 30.2295H71.07V40.1893H26.1823Z" fill="#593A58"/>
<path d="M71.5029 40.1896C74.0817 40.1896 76.1723 37.959 76.1723 35.2073C76.1723 32.4557 74.0817 30.2251 71.5029 30.2251C68.9241 30.2251 66.8335 32.4557 66.8335 35.2073C66.8335 37.959 68.9241 40.1896 71.5029 40.1896Z" fill="#472F48"/>
<path d="M77.1455 46.5025C77.1455 44.829 76.483 43.2239 75.3037 42.0401C74.1243 40.8564 72.5245 40.1907 70.856 40.1895H47.1133V66.6042H73.3467C74.3554 66.6042 75.3229 66.2023 76.0362 65.4869C76.7495 64.7715 77.1502 63.8011 77.1502 62.7893V46.5025H77.1455Z" fill="#89A7E2"/>
<path d="M74.6641 48.258C74.6641 46.4004 73.9284 44.6189 72.6188 43.3054C71.3092 41.9918 69.533 41.2539 67.6809 41.2539H39.4783C37.6262 41.2539 35.85 41.9918 34.5404 43.3054C33.2308 44.6189 32.4951 46.4004 32.4951 48.258V90.2265C32.4951 92.0841 33.2308 93.8657 34.5404 95.1792C35.85 96.4927 37.6262 97.2306 39.4783 97.2306H67.6949C69.5469 97.2306 71.3231 96.4927 72.6327 95.1792C73.9423 93.8657 74.6781 92.0841 74.6781 90.2265V48.258H74.6641Z" fill="#7396DD"/>
<path d="M66.014 48.258C66.014 46.4004 65.2783 44.6189 63.9687 43.3054C62.6591 41.9918 60.8829 41.2539 59.0309 41.2539H30.8049C28.9529 41.2539 27.1767 41.9918 25.8671 43.3054C24.5575 44.6189 23.8218 46.4004 23.8218 48.258V90.2265C23.8218 92.0841 24.5575 93.8657 25.8671 95.1792C27.1767 96.4927 28.9529 97.2306 30.8049 97.2306H59.0309C60.8829 97.2306 62.6591 96.4927 63.9687 95.1792C65.2783 93.8657 66.014 92.0841 66.014 90.2265V48.258Z" fill="#6277C5"/>
<path d="M76.1675 83.3301H67.4106V93.6588H73.5558C74.2485 93.6588 74.9128 93.3828 75.4026 92.8916C75.8924 92.4003 76.1675 91.734 76.1675 91.0393V83.3301Z" fill="#6277C5"/>
<path d="M27.202 89.6712L22.9329 93.5048L19.73 126.858C19.73 126.858 31.7503 131.224 40.2139 129.585L41.4988 117.183L43.6682 129.347C43.6682 129.347 58.8543 128.581 64.5479 124.678L60.0135 89.2183L27.1926 89.6852L27.202 89.6712Z" fill="#E4B586"/>
<path d="M61.2374 98.7296L60.0224 89.2227L27.2015 89.6896L22.9325 93.5232L22.5693 97.2867C33.0813 101.723 42.0663 101.578 61.2374 98.7482V98.7296Z" fill="#CF9168"/>
<path d="M40.3722 128.039L41.4662 117.51L41.4336 117.08L40.6189 111.533L34.3062 110.996L40.3722 128.039Z" fill="#CF9168"/>
<path d="M30.0371 46.199L29.1851 40.04C26.5677 41.2835 24.2754 43.1221 22.4906 45.4098C20.2234 48.3329 16.1499 56.1728 16.1499 56.1728L25.9263 59.5441L30.0371 46.199Z" fill="#E55950"/>
<path d="M37.8209 36.4492C37.8209 36.4492 26.2288 40.1847 25.1674 43.2759C23.2214 48.9539 21.6758 96.0401 21.6758 96.0401C25.2776 97.4925 29.0574 98.4536 32.914 98.8977L35.0835 95.0642L38.4819 98.9118C46.3962 98.146 54.0916 96.549 61.3262 93.6167C61.3262 93.6167 60.5068 44.6627 55.9724 41.8891C46.2565 35.9496 37.8162 36.4679 37.8162 36.4679L37.8209 36.4492Z" fill="#E43B3F"/>
<path d="M35.3253 50.8544C35.8215 50.8544 36.2238 50.4593 36.2238 49.9719C36.2238 49.4845 35.8215 49.0894 35.3253 49.0894C34.829 49.0894 34.4268 49.4845 34.4268 49.9719C34.4268 50.4593 34.829 50.8544 35.3253 50.8544Z" fill="#FED6CE"/>
<path d="M34.0826 84.0023C34.5788 84.0023 34.9811 83.6072 34.9811 83.1198C34.9811 82.6324 34.5788 82.2373 34.0826 82.2373C33.5864 82.2373 33.1841 82.6324 33.1841 83.1198C33.1841 83.6072 33.5864 84.0023 34.0826 84.0023Z" fill="#FED6CE"/>
<path d="M34.4268 92.2767C34.923 92.2767 35.3253 91.8816 35.3253 91.3942C35.3253 90.9068 34.923 90.5117 34.4268 90.5117C33.9306 90.5117 33.5283 90.9068 33.5283 91.3942C33.5283 91.8816 33.9306 92.2767 34.4268 92.2767Z" fill="#FED6CE"/>
<path d="M66.2374 58.2412L72.4059 72.1793L64.6173 75.7094L57.2617 64.3908L66.2374 58.2412Z" fill="#EF7D78"/>
<path d="M54.6966 41.2494C54.6966 41.2494 57.2897 41.9031 61.326 46.6799C63.8492 49.673 69.9246 60.9449 69.9246 60.9449L57.2525 67.6501C57.2525 67.6501 51.1119 54.0015 54.6966 41.2354V41.2494Z" fill="#E55950"/>
<path d="M56.9267 41.7492C51.8058 56.6166 51.3123 70.7789 63.1464 81.0656L62.2898 84.5443C44.804 69.859 42.6904 57.5038 49.357 38.7842C51.5823 39.3118 54.9202 40.1056 56.9267 41.7492Z" fill="#59649A"/>
<path d="M21.5454 84.5439C34.3153 85.6459 47.7742 85.2444 61.368 84.5439L61.6241 88.4943C47.5088 89.0126 33.738 89.2927 21.5454 88.4943V84.5439Z" fill="#59649A"/>
<path d="M38.7286 86.1596C38.7292 85.9472 38.6879 85.7369 38.6072 85.5406C38.5265 85.3443 38.4079 85.1659 38.2582 85.0158C38.1085 84.8656 37.9306 84.7467 37.7349 84.6657C37.5392 84.5847 37.3295 84.5433 37.1178 84.544H31.2426C31.0309 84.5433 30.8212 84.5847 30.6255 84.6657C30.4298 84.7467 30.252 84.8656 30.1023 85.0158C29.9526 85.1659 29.8339 85.3443 29.7532 85.5406C29.6725 85.7369 29.6312 85.9472 29.6318 86.1596V88.1768C29.6312 88.3891 29.6725 88.5995 29.7532 88.7958C29.8339 88.992 29.9526 89.1704 30.1023 89.3205C30.252 89.4707 30.4298 89.5897 30.6255 89.6706C30.8212 89.7516 31.0309 89.793 31.2426 89.7924H37.1178C37.3295 89.793 37.5392 89.7516 37.7349 89.6706C37.9306 89.5897 38.1085 89.4707 38.2582 89.3205C38.4079 89.1704 38.5265 88.992 38.6072 88.7958C38.6879 88.5995 38.7292 88.3891 38.7286 88.1768V86.1596Z" fill="#6277C5"/>
<path d="M31.3544 39.0874C25.5351 50.0044 23.226 63.1348 22.3182 80.4302L21.8992 77.2457C21.0706 61.0756 21.6758 50.1259 25.577 42.0852C27.2305 40.6286 29.2138 39.5994 31.3544 39.0874Z" fill="#59649A"/>
<path d="M26.8711 83.3299C19.0314 74.8783 9.79498 75.9149 9.79498 75.9149C7.0481 67.5777 3.78289 59.4214 0.0185547 51.494C8.81734 46.7218 19.9206 53.9874 20.7865 54.5758C21.5407 53.7446 34.4595 48.9725 48.3746 51.6947L52.8206 78.7772C52.8206 78.7772 32.0666 77.3764 26.9503 83.2692L26.8711 83.3299Z" fill="#EBEBEB"/>
<path d="M40.4095 51.8909C38.7149 55.0987 35.6469 61.4305 35.4467 65.4321C35.2978 68.4532 41.4383 70.1015 40.5677 72.9032C40.1441 74.2806 37.6534 76.5453 35.2279 78.5064C33.9385 78.7332 32.6685 79.0595 31.4291 79.4823C31.6665 77.5632 33.8686 74.7336 32.8257 74.2713C31.7829 73.809 26.5688 76.7741 25.1443 76.704C24.1527 76.6527 25.1955 74.2433 24.283 73.8417C23.3705 73.4401 20.4236 73.795 19.5484 74.2339C18.8641 74.5795 19.4413 75.6721 19.041 76.4799L18.5754 76.2791L18.1425 76.1297C18.0773 74.6682 18.5475 73.3981 18.2915 72.0673C17.9376 70.2276 17.2579 67.2065 16.0336 65.0913C14.7021 62.8033 10.8427 60.5152 10.3167 58.33C9.79062 56.1447 11.8902 54.0528 12.8725 51.9889L14.3436 52.4559L15.3539 52.8668C14.8604 54.1415 13.3288 54.8373 13.4917 56.0606C13.6546 57.284 15.2328 58.9884 16.3408 60.2631C17.4488 61.5378 19.176 62.3456 20.1629 63.7651C21.4851 65.6656 22.2067 70.7692 24.2551 71.6611C26.3035 72.553 30.7727 70.6105 32.4673 69.1163C34.1618 67.6221 33.9942 64.8858 34.5157 62.7052C35.1954 59.8569 36.0939 54.4077 36.5594 52.0263L38.1329 51.9095L40.4048 51.8535L40.4095 51.8909Z" fill="#B0A91B"/>
<path d="M48.7008 57.835C46.3032 60.1697 43.3238 63.4382 42.8117 65.306C41.9737 68.3645 46.8619 71.2501 46.4848 74.0751C46.3498 75.079 45.5537 76.4098 44.5854 77.6892H45.1952H48.3097L48.1701 76.8721C47.9001 75.2051 46.4662 69.9847 46.685 67.6827C46.8572 65.8897 49.185 65.25 49.4782 63.0554L48.6915 57.8536L48.7008 57.835Z" fill="#B0A91B"/>
<path d="M7.35547 66.791C9.92062 67.0945 13.4634 66.6416 15.0509 67.6642C16.6384 68.6868 16.6291 71.6052 16.8758 72.9359C17.0434 73.8325 16.5313 74.6356 16.522 75.6535C14.9078 75.2251 13.2341 75.0674 11.5686 75.1866C11.6618 73.076 11.6618 70.788 11.28 70.0923C10.8983 69.3965 9.64129 69.6253 8.55192 70.0316L8.37501 69.5133L7.35547 66.791Z" fill="#B0A91B"/>
<path d="M4.59973 51.0645C4.66491 51.5314 4.19936 51.7275 4.30178 52.059C4.71146 53.3711 5.53547 57.0413 7.0578 58.9324C8.58013 60.8235 12.3743 62.4064 13.4358 63.4337C13.8361 63.8213 13.9758 64.9746 13.4358 65.1053C12.3138 65.3762 8.95722 65.1053 6.7133 65.04C5.05596 60.6974 3.22637 56.3269 1.31299 51.933C2.34878 51.4509 3.46158 51.1568 4.59973 51.0645Z" fill="#B0A91B"/>
<path d="M40.4093 51.8909C42.9251 51.8702 45.4365 52.1064 47.9045 52.596L48.7006 57.835C46.3031 60.1697 43.3236 63.4383 42.8115 65.3061C41.9735 68.3645 46.8617 71.2502 46.4846 74.0752C46.3496 75.0791 45.5535 76.4099 44.5852 77.6893L41.1914 77.8154C38.9288 78.0022 39.0732 77.9928 36.9549 78.245L35.2324 78.5392C37.6579 76.5827 40.1486 74.3367 40.5722 72.9359C41.4381 70.1342 35.2976 68.4766 35.4512 65.4648C35.6514 61.4538 38.71 55.1221 40.4139 51.9236L40.4093 51.8909Z" fill="#7999C3"/>
<path d="M4.59955 51.0647C7.39347 50.7859 10.2146 51.1042 12.8769 51.9986C11.8946 54.0624 9.79502 56.159 10.3211 58.3396C10.8472 60.5202 14.7065 62.8129 16.038 65.1009C17.2623 67.2161 17.942 70.2372 18.2959 72.077C18.5519 73.4077 18.0817 74.6778 18.1469 76.1393L17.132 75.7938L16.5547 75.6537C16.5547 74.6358 17.0761 73.8327 16.9085 72.9361C16.6618 71.6054 16.6432 68.673 15.0836 67.6644C13.524 66.6558 9.96262 67.0947 7.38816 66.7912L6.72709 65.0402C8.97101 65.1056 12.3136 65.3764 13.4495 65.1056C13.9896 64.9748 13.8499 63.8215 13.4495 63.4339C12.3881 62.4067 8.59392 60.8331 7.07159 58.9326C5.54926 57.0322 4.74387 53.3714 4.31557 52.0593C4.21315 51.7278 4.67869 51.5503 4.61351 51.0647H4.59955Z" fill="#7999C3"/>
<path d="M49.4873 63.0366L51.7312 77.8153C51.7312 77.8153 50.3905 77.7125 48.3095 77.6705L48.1698 76.8534C47.8998 75.1864 46.4659 69.966 46.6847 67.664C46.857 65.8709 49.1847 65.2312 49.478 63.0366H49.4873Z" fill="#8F8411"/>
<path d="M36.5637 52.0732C36.0981 54.4546 35.1996 59.9038 34.5199 62.7521C33.9985 64.9328 34.1615 67.6924 32.4715 69.1632C30.7816 70.6341 26.3124 72.5999 24.2593 71.7081C22.2063 70.8162 21.4661 65.7125 20.1672 63.8121C19.1803 62.4113 17.4577 61.5941 16.3451 60.3101C15.2324 59.026 13.6589 57.3357 13.496 56.1076C13.333 54.8795 14.8647 54.1885 15.3581 52.9137C17.2349 53.6715 19.0445 54.5869 20.7678 55.65C25.8463 53.7424 31.1606 52.539 36.5637 52.0732Z" fill="#8F8411"/>
<path d="M19.0362 76.494C19.4365 75.6862 18.8593 74.5936 19.5436 74.2481C20.4188 73.8091 23.3471 73.4449 24.2782 73.8558C25.2093 74.2667 24.1478 76.6575 25.1394 76.7182C26.564 76.7882 31.7734 73.8185 32.8209 74.2854C33.8684 74.7523 31.671 77.5773 31.4243 79.4964C29.4876 80.1502 27.8768 81.042 26.862 82.2421C24.719 79.7545 22.0396 77.7889 19.0269 76.494H19.0362Z" fill="#8F8411"/>
<path d="M8.5708 70.0222C9.66017 69.6159 10.8985 69.3684 11.2989 70.0829C11.6993 70.7973 11.6806 73.0666 11.5875 75.1772L10.3631 75.2706L8.5708 70.0222Z" fill="#8F8411"/>
<path d="M26.9082 83.3065V83.3299C19.0685 74.8783 9.83209 75.9149 9.83209 75.9149C7.08521 67.5777 3.82 59.4214 0.0556641 51.494C8.85444 46.7218 19.9577 53.9874 20.8236 54.5758L20.8515 54.5477L26.9082 83.3065Z" fill="black" fill-opacity="0.16"/>
<path d="M58.7005 63.163C58.7005 63.163 50.4324 53.474 48.4073 53.4133C45.2416 53.3059 43.3235 54.4406 43.4399 55.4585C43.6029 56.9107 47.6298 56.243 47.6298 56.243L49.3058 57.6438C49.3058 57.6438 46.047 57.4243 44.8505 58.1107C43.8636 58.6711 41.5545 61.2906 41.899 62.486C41.9819 62.7655 42.1592 63.0073 42.4004 63.17C42.6416 63.3327 42.9318 63.4062 43.2211 63.3778C43.2211 63.3778 42.7556 64.3117 43.2211 65.0121C43.7798 65.8853 45.1252 65.1289 45.1252 65.1289C45.0338 65.2177 44.9652 65.3272 44.925 65.4483C44.8848 65.5694 44.8743 65.6984 44.8944 65.8244C44.9145 65.9504 44.9646 66.0697 45.0404 66.1721C45.1163 66.2746 45.2156 66.3572 45.33 66.4129C45.9771 66.8565 47.3505 66.0301 48.0023 65.946C48.5709 65.9115 49.1338 66.0766 49.5944 66.4129C49.5944 66.4129 51.6801 69.7376 56.4938 68.8831L58.6818 63.2051L58.7005 63.163Z" fill="#FDA092"/>
<path d="M43.5005 62.9433C45.1718 60.4358 46.9362 59.8008 49.5526 60.2397" stroke="#E43B3F" stroke-width="1.27" stroke-linecap="round" stroke-linejoin="round"/>
<path d="M45.293 64.7086C46.9596 62.2011 48.5983 62.4252 50.5117 62.9435" stroke="#E43B3F" stroke-width="1.27" stroke-linecap="round" stroke-linejoin="round"/>
<path d="M57.262 62.3926C57.262 62.3926 66.9966 67.3608 71.1306 70.2045C72.7833 71.3438 74.4592 77.4234 72.22 80.6873C70.7162 82.8819 66.7079 82.5317 63.2908 80.2904C60.4324 78.4226 55.3486 67.683 55.3486 67.683L57.262 62.4113V62.3926Z" fill="#FDA092"/>
<path d="M1.81116 59.1381C1.37355 59.3202 -0.0510147 60.0393 1.44338 61.4027C1.73767 61.6452 2.07828 61.8248 2.4443 61.9304C1.97875 62.3086 1.36889 63.0884 2.77018 64.0223C3.14932 64.2448 3.57157 64.3833 4.00853 64.4285C3.57091 64.7647 2.66776 65.6939 4.35303 66.6418C5.84743 67.4776 10.0978 66.6418 9.758 65.2643C9.62764 64.7227 7.79805 64.4845 6.27573 64.3818C7.43959 64.1764 8.38464 63.7001 8.28222 63.0277C8.2217 62.6074 7.16026 62.2993 5.98709 62.0938C6.61557 61.9257 7.05318 61.6269 7.06715 61.1879C7.08112 60.749 6.02899 60.2867 4.87444 59.9039C5.60534 59.9039 6.17796 59.6937 6.31762 59.2315C6.60626 58.2976 1.86702 56.187 1.86702 56.187C1.86702 56.187 -0.460696 56.4438 0.782306 58.3349C1.05569 58.6854 1.40837 58.9655 1.81116 59.1521V59.1381Z" fill="#FDA092"/>
<path d="M44.3991 29.3706C44.3991 29.3706 43.7241 36.0899 46.3172 38.093C42.7837 41.3383 39.0826 42.8231 35.8937 44.7376C35.8937 44.7376 33.9849 40.7593 34.1153 38.3639C34.1153 38.3639 35.591 37.7195 34.7763 34.2781L44.3991 29.3706Z" fill="#FDA092"/>
<path d="M34.1106 38.588C34.1106 38.5086 34.1106 38.4386 34.1106 38.3639C34.1106 38.3639 35.5864 37.7195 34.7717 34.2781L44.3945 29.3706C44.2566 30.9891 44.3004 32.618 44.5248 34.2268C42.3833 36.2813 37.9793 39.8301 34.106 38.588H34.1106Z" fill="#EF7D78"/>
<path d="M35.856 44.7747C39.3515 42.5285 42.6377 39.9701 45.6743 37.1309C47.3223 37.4624 48.9331 37.892 50.2645 38.9099C49.4893 42.2518 47.8701 45.3375 45.5626 47.8705C42.4108 45.956 40.2181 45.1342 35.856 44.7747Z" fill="#E55950"/>
<path d="M34.8229 37.4673C34.6265 39.938 34.9812 42.4215 35.861 44.7375C33.0911 44.8029 29.9254 45.3165 27.1973 47.4271C27.8025 43.869 28.4822 41.8612 30.5119 39.0222C31.6758 38.149 33.0771 37.7148 34.8229 37.4673Z" fill="#E55950"/>
<path d="M26.8711 12.9154C26.8711 12.9154 30.386 3.54862 32.0293 2.23185C33.817 0.798345 37.4389 -0.369003 39.6456 0.111945C42.3691 0.709628 51.9919 5.20159 52.9369 9.34801C53.7889 13.0835 51.9593 19.5366 51.9593 19.5366L26.8711 12.9154Z" fill="#E6B489"/>
<path d="M28.6681 8.4467C32.709 8.27861 43.2582 8.6148 52.8019 15.5582C52.5879 16.8984 52.3036 18.2264 51.9499 19.5365L26.8711 12.9153C26.8711 12.9153 27.6625 10.8047 28.6681 8.4467Z" fill="#584344"/>
<path d="M29.8369 5.84596C30.6423 4.15097 31.4477 2.69412 32.0203 2.23185C33.808 0.798345 37.4299 -0.369003 39.6366 0.111945C40.9681 0.406117 43.9569 1.6295 46.7688 3.2918C38.6357 0.574214 32.7279 3.65602 29.8369 5.84596Z" fill="#F4CDA8"/>
<path d="M27.0479 23.0062C28.8868 23.6879 29.9297 25.4576 29.3757 26.9565C28.8217 28.4554 26.8803 29.1138 25.0368 28.4274C23.1932 27.741 22.1551 25.9759 22.7091 24.477C23.2631 22.9782 25.2044 22.3198 27.0479 23.0062Z" fill="#EF7D78"/>
<path d="M38.6167 12.4114C50.772 15.3764 60.0317 20.284 59.2868 23.3564C58.5419 26.4289 48.0672 26.5129 35.9165 23.5432C23.7658 20.5735 14.4968 15.6519 15.2696 12.5981C16.0424 9.54436 26.4892 9.44163 38.6399 12.4114H38.6167Z" fill="#C68F6A"/>
<path d="M37.9326 18.6357C46.7779 20.9237 50.6745 23.1043 51.978 23.9354C52.6671 24.3744 44.9297 24.2156 37.4391 22.1704C29.9485 20.1252 24.0128 17.7625 24.2875 16.9267C24.6134 15.9414 29.4969 16.4597 37.9326 18.6357Z" fill="#A26C47"/>
<path d="M29.5247 12.4204L47.5971 17.2766C47.5971 17.2766 48.6678 22.4129 48.2628 24.9671C47.1595 31.9945 39.9436 36.5705 33.8077 36.197C26.7268 35.7767 25.4791 29.8793 26.331 21.479C26.6185 18.238 27.717 15.1223 29.5247 12.4204Z" fill="#FDA092"/>
<path d="M45.842 26.639C45.842 26.639 42.3039 22.1237 42.1177 18.7944L49.3196 21.1852L49.2079 24.9207L45.8281 26.6577L45.842 26.639Z" fill="#2B2738"/>
<path d="M28.1142 16.0209C28.1142 16.0209 26.5639 19.2101 26.0984 24.3231C25.4887 21.5675 25.4887 18.7112 26.0984 15.9556L28.1142 16.0209Z" fill="#2B2738"/>
<path d="M25.6328 16.3803C25.6328 16.3803 36.5359 16.5297 49.7154 22.7167L49.3337 17.3188L27.8395 11.272L25.6328 16.3803Z" fill="#C68F6A"/>
<path d="M47.8577 24.0288C49.7804 23.6225 51.5821 24.5611 51.9312 26.1253C52.2804 27.6896 50.9629 29.2818 49.0448 29.6881C47.1268 30.0943 45.3205 29.1511 44.9713 27.5915C44.6222 26.0319 45.935 24.4303 47.8577 24.0288Z" fill="#FDA092"/>
<path d="M16.8806 15.5866C15.633 14.4986 15.0184 13.476 15.2466 12.5981C15.9914 9.52568 26.4662 9.44163 38.6169 12.4114C42.2009 13.2705 45.7211 14.3782 49.1521 15.7266C26.7176 9.48833 13.4077 10.581 16.8806 15.5866Z" fill="#CFA581"/>
<path d="M29.6414 24.3227C29.9422 24.3227 30.1861 23.9422 30.1861 23.4729C30.1861 23.0035 29.9422 22.623 29.6414 22.623C29.3405 22.623 29.0967 23.0035 29.0967 23.4729C29.0967 23.9422 29.3405 24.3227 29.6414 24.3227Z" fill="#30385B"/>
<path d="M37.7742 24.3227C38.075 24.3227 38.3189 23.9422 38.3189 23.4729C38.3189 23.0035 38.075 22.623 37.7742 22.623C37.4734 22.623 37.2295 23.0035 37.2295 23.4729C37.2295 23.9422 37.4734 24.3227 37.7742 24.3227Z" fill="#30385B"/>
<path d="M36.48 20.2091L36.629 18.8082C39.1801 18.6495 40.5256 19.6301 41.1075 21.3297C39.7073 20.5108 38.0985 20.1212 36.48 20.2091Z" fill="#2B2738"/>
<path d="M31.168 20.3215L31.047 18.9206C28.8449 18.2809 27.4669 19.3502 27.02 21.2553C28.0302 20.2467 29.5246 20.0506 31.168 20.3215Z" fill="#2B2738"/>
<path d="M31.9082 29.6599C34.2383 29.3841 36.5353 28.8774 38.7657 28.147C38.7657 28.147 39.2312 32.0366 36.3029 32.7463C32.9184 33.5728 31.9082 29.6599 31.9082 29.6599Z" fill="white"/>
</g>
<defs>
<clipPath id="clip0_4_2969">
<rect width="81" height="187" fill="white"/>
</clipPath>
</defs>
</svg>
